<svg width="208" height="38" viewBox="0 0 208 38" fill="none" xmlns="http://www.w3.org/2000/svg">
<path d="M193.68 6.48056C193.68 3.64647 196.421 1.81554 200.634 1.81554C202.758 1.81554 205.121 2.43728 206.663 3.43874L207.008 2.88681C205.362 1.81554 202.862 1.1241 200.634 1.1241C196.009 1.1241 192.995 3.23191 192.995 6.48056C192.995 10.9286 196.691 12.0574 200.327 13.1682C203.866 14.2492 207.348 15.3132 207.314 19.4031C207.314 22.5471 204.403 24.5865 199.881 24.5865C197.003 24.5865 193.987 23.3422 192.172 21.4074L191.693 21.8908C193.68 23.93 196.866 25.2776 199.881 25.2776C204.815 25.2776 208 22.962 208 19.4031C208.035 14.7902 204.258 13.6389 200.575 12.5161C197.086 11.4523 193.68 10.414 193.68 6.48056Z" fill="#212D4A"/>
<path d="M140.339 1.12411L157.229 24.5865V1.12411H157.915V25.2789H156.887L139.997 1.81566V25.2789H139.312V1.12411H140.339Z" fill="#212D4A"/>
<path fill-rule="evenodd" clip-rule="evenodd" d="M131.235 17.9195H116.709L113.386 25.2788H112.564L123.527 1.12412H124.28L135.381 25.2788H134.593L131.235 17.9195ZM123.904 1.92009L130.893 17.228H117.017L123.904 1.92009Z" fill="#212D4A"/>
<path fill-rule="evenodd" clip-rule="evenodd" d="M102.454 16.7087L108.655 25.279H107.798L101.701 16.847C101.015 16.9164 100.296 16.9852 99.5084 16.9852H92.0735V25.279H91.3883V1.12413H99.5084C105.332 1.12413 108.655 3.99295 108.655 8.96823C108.655 13.1147 106.427 15.8452 102.454 16.7087ZM107.97 8.96824C107.97 13.6332 104.887 16.2938 99.5084 16.2938H92.0735V1.81535H99.5084C104.887 1.81535 107.97 4.40753 107.97 8.96824Z" fill="#212D4A"/>
<path fill-rule="evenodd" clip-rule="evenodd" d="M83.7943 7.10189C83.7943 10.1427 82.0813 12.1808 79.0656 12.7001C82.8705 13.1484 85.0605 15.3955 85.0605 18.8162C85.0605 22.9273 81.9443 25.2776 76.4966 25.2776H66.8695V1.12414H76.4966C81.122 1.12414 83.7943 3.30141 83.7943 7.10189ZM83.1091 7.1019C83.1091 3.75005 80.7128 1.81536 76.4966 1.81536H67.556V12.4236H76.4966C80.7128 12.4236 83.1091 10.489 83.1091 7.1019ZM84.4106 18.7828C84.4106 15.1527 81.532 13.08 76.4966 13.08H67.556V24.5865H76.4966C81.532 24.5865 84.4106 22.4787 84.4106 18.7828Z" fill="#212D4A"/>
<path fill-rule="evenodd" clip-rule="evenodd" d="M176.594 25.2779C183.343 25.2779 188.861 19.8518 188.861 13.2186C188.861 6.54903 183.343 1.12411 176.594 1.12411H167.174V25.2779H176.594ZM188.174 13.2186C188.174 6.9292 182.967 1.81554 176.594 1.81554H167.859V24.5865H176.594C182.967 24.5865 188.174 19.4719 188.174 13.2186Z" fill="#212D4A"/>
<path d="M18.4971 24.981L10.0304 0H14.4125C14.4125 0 20.3505 17.5149 21.1953 20.0093C22.0392 22.5045 25.0148 24.981 25.0148 24.981H18.4971Z" fill="#212D4A"/>
<path d="M30.7586 24.981L22.2898 0H26.6754C26.6754 0 32.6122 17.5149 33.4569 20.0093C34.3017 22.5045 37.2751 24.981 37.2751 24.981H30.7586Z" fill="#212D4A"/>
<path d="M6.51744 25.2069H0C0 25.2069 2.97346 22.7291 3.81948 20.2338C4.66426 22.9878 6.51744 25.2069 6.51744 25.2069Z" fill="#212D4A"/>
<path d="M46.1042 24.7303L37.7213 0H31.2058C31.2058 0 34.177 2.47617 35.023 4.97179C35.869 7.46618 41.8049 24.981 41.8049 24.981H41.9461C41.5914 26.0271 40.2142 30.0881 39.4823 32.2502C38.6372 34.7436 35.6637 37.2211 35.6637 37.2211H42.1815L46.4155 24.7303H46.1042Z" fill="#212D4A"/>
<path d="M51.2666 0H57.7853C57.7853 0 54.8108 2.47786 53.9662 4.97213C53.1188 2.22033 51.2666 0 51.2666 0Z" fill="#212D4A"/>
</svg>
